<mxfile host="app.diagrams.net" modified="2024-06-17T05:37:46.545Z" agent="Mozilla/5.0 (Windows NT 10.0; Win64; x64) AppleWebKit/537.36 (KHTML, like Gecko) Chrome/125.0.0.0 Safari/537.36" etag="b0T3e2r9Eq7ml00ZQnaS" version="24.5.4" type="device">
  <diagram name="Page-1" id="8gkoaITpcbI0VQsJJdFB">
    <mxGraphModel dx="954" dy="592" grid="1" gridSize="10" guides="1" tooltips="1" connect="1" arrows="1" fold="1" page="1" pageScale="1" pageWidth="827" pageHeight="1169" math="0" shadow="0">
      <root>
        <mxCell id="0" />
        <mxCell id="1" parent="0" />
        <mxCell id="4kKVadJ2q0rEHIaGiWLF-1" value="Check &amp;lt;@version&amp;gt; and&amp;nbsp;&lt;div&gt;--save-[dev|prod|]&lt;/div&gt;" style="rounded=0;whiteSpace=wrap;html=1;" vertex="1" parent="1">
          <mxGeometry x="320" y="190" width="120" height="60" as="geometry" />
        </mxCell>
      </root>
    </mxGraphModel>
  </diagram>
</mxfile>
